# xmcd
#
# Track frame offsets: 
#        150
#        16290
#        31107
#        48155
#        62246
#        75230
#        90737
#        105392
#        118714
#        132318
#        143142
#        159679
#
# Disc length: 2261 seconds
#
# Revision: 0
# Processed by: cddbd v1.5.2PL0 Copyright (c) Steve Scherf et al.
# Submitted via: ExactAudioCopy v1.0b3
#
DISCID=9008d30c
DTITLE=Invisible Breakfast Band - Out To Lunch
DYEAR=2002
DGENRE=Bluegrass
TTITLE0=Four Days Of Rain
TTITLE1=Breaking New Ground
TTITLE2=Song For Life
TTITLE3=Kentucky Caravan
TTITLE4=Eternity (Mighty Long Time)
TTITLE5=I Can See Clearly Now
TTITLE6=Proud Mary
TTITLE7=Mighty Fine
TTITLE8=I Shall Be Released
TTITLE9=200 Miles For Your Kiss
TTITLE10=Out To Lunch
TTITLE11=Blue Days - Black Nights
EXTD=
EXTT0=
EXTT1=
EXTT2=
EXTT3=
EXTT4=
EXTT5=
EXTT6=
EXTT7=
EXTT8=
EXTT9=
EXTT10=
EXTT11=
PLAYORDER=
